<svg height="32" viewBox="0 0 32 32" width="32" xmlns="http://www.w3.org/2000/svg"><path d="m22.797 14.562c-.067-.774-.209-1.546-.407-2.297-.625-2.369-1.666-4.637-3.134-6.603-.4-.536-.832-1.048-1.294-1.532-.476-.499-1.004-.957-1.336-1.578-.21-.393-.41-.791-.614-1.187-.003.124-.011.248-.011.371 0-.124.009-.248.011-.372-.038-.095-.076-.191-.13-.327-.022.075-.036.101-.036.129-.017.645-.383 1.083-.838 1.492-.512.46-.989.959-1.481 1.441.017.022.036.044.055.066-.019-.022-.038-.043-.055-.066-1.463 1.924-2.752 3.981-3.511 6.29-.221.672-.395 1.359-.517 2.056-.259 1.481-.379 2.92-.296 4.42.046.829.191 1.645.407 2.448.785 2.917 2.379 5.336 4.558 7.392.405.382.842.729 1.265 1.093.001-.004.002-.007.003-.011-.001.004-.002.007-.003.011.062.214.125.428.187.642.058.332.116.664.174.996.028.346.055.693.083 1.039-.001.211-.01.423.003.633.003.054.074.104.113.156.001-.002.002-.004.004-.006-.001.002-.002.004-.004.006.118.041.235.083.353.124.106.041.212.083.367.143-.023-.346-.043-.635-.063-.924-.001-.303-.002-.607-.003-.91-.006.007-.014.014-.021.021.007-.007.014-.014.021-.021.042-.462.085-.924.127-1.386.031-.101.061-.201.092-.302.088-.156.175-.311.263-.467.325-.262.674-.499.971-.79.536-.527 1.071-1.06 1.55-1.637.622-.748 1.158-1.565 1.588-2.441 1.223-2.491 1.789-5.269 1.564-8.039-.002-.024-.004-.049-.006-.074z" fill="#444"/></svg>