<svg height="32" viewBox="0 0 32 32" width="32" xmlns="http://www.w3.org/2000/svg"><path d="m15.998 28.895c-.337 0-.673-.088-.969-.259l-3.086-1.826c-.46-.257-.235-.349-.083-.402.614-.213.739-.262 1.394-.635.069-.038.159-.024.231.018l2.37 1.407c.087.048.207.048.287 0l9.241-5.333c.086-.049.141-.149.141-.25v-10.665c0-.104-.055-.202-.143-.255l-9.237-5.329c-.086-.05-.199-.05-.285 0l-9.235 5.331c-.09.051-.146.152-.146.253v10.666c0 .102.056.198.145.247l2.532 1.462c1.374.687 2.215-.122 2.215-.935v-10.53c0-.149.12-.266.269-.266h1.172c.146 0 .267.117.267.266v10.53c0 1.833-.998 2.885-2.736 2.885-.534 0-.955 0-2.129-.579l-2.423-1.395c-.598-.346-.969-.993-.969-1.686v-10.665c0-.693.371-1.339.969-1.684l9.242-5.34c.585-.331 1.362-.331 1.942 0l9.241 5.34c.599.346.971.992.971 1.684v10.665c0 .693-.372 1.337-.971 1.686l-9.241 5.335c-.296.171-.631.259-.973.259zm2.855-7.348c-4.045 0-4.892-1.857-4.892-3.414 0-.148.118-.266.266-.266h1.195c.133 0 .245.096.265.226.18 1.216.717 1.831 3.164 1.831 1.946 0 2.775-.441 2.775-1.473 0-.596-.234-1.037-3.26-1.334-2.528-.25-4.093-.809-4.093-2.831 0-1.865 1.572-2.977 4.207-2.977 2.961 0 4.425 1.027 4.611 3.233.007.075-.02.148-.071.205-.051.054-.121.086-.196.086h-1.2c-.124 0-.233-.088-.259-.209-.288-1.28-.988-1.689-2.886-1.689-2.126 0-2.373.74-2.373 1.295 0 .673.292.869 3.161 1.248 2.84.375 4.19.907 4.19 2.902 0 2.014-1.678 3.167-4.606 3.167z" fill="#444"/></svg>